<mxfile host="app.diagrams.net" modified="2022-02-24T02:23:26.893Z" agent="5.0 (Windows NT 10.0; Win64; x64) AppleWebKit/537.36 (KHTML, like Gecko) Chrome/98.0.4758.102 Safari/537.36" etag="3koe-FZ1A9aUw8Pky2-Y" version="16.5.5" type="github">
  <diagram name="Page-1" id="c7558073-3199-34d8-9f00-42111426c3f3">
    <mxGraphModel dx="1822" dy="1162" grid="0" gridSize="10" guides="1" tooltips="1" connect="1" arrows="1" fold="1" page="0" pageScale="1" pageWidth="826" pageHeight="1169" background="none" math="0" shadow="0">
      <root>
        <mxCell id="0" />
        <mxCell id="1" parent="0" />
        <mxCell id="fIHSXyvkr7CKKRP50xWv-104" style="edgeStyle=orthogonalEdgeStyle;curved=1;rounded=0;orthogonalLoop=1;jettySize=auto;html=1;entryX=0.504;entryY=0.02;entryDx=0;entryDy=0;entryPerimeter=0;" edge="1" parent="1" source="5" target="fIHSXyvkr7CKKRP50xWv-107">
          <mxGeometry relative="1" as="geometry">
            <mxPoint x="310" y="90" as="targetPoint" />
          </mxGeometry>
        </mxCell>
        <mxCell id="fIHSXyvkr7CKKRP50xWv-114" style="edgeStyle=orthogonalEdgeStyle;curved=1;rounded=0;orthogonalLoop=1;jettySize=auto;html=1;fontSize=6;" edge="1" parent="1" source="5" target="fIHSXyvkr7CKKRP50xWv-113">
          <mxGeometry relative="1" as="geometry">
            <Array as="points">
              <mxPoint x="260" y="75" />
              <mxPoint x="260" y="235" />
            </Array>
          </mxGeometry>
        </mxCell>
        <mxCell id="fIHSXyvkr7CKKRP50xWv-123" style="edgeStyle=orthogonalEdgeStyle;curved=1;rounded=0;orthogonalLoop=1;jettySize=auto;html=1;entryX=1.011;entryY=0.514;entryDx=0;entryDy=0;entryPerimeter=0;fontSize=6;" edge="1" parent="1" source="5" target="fIHSXyvkr7CKKRP50xWv-119">
          <mxGeometry relative="1" as="geometry" />
        </mxCell>
        <mxCell id="fIHSXyvkr7CKKRP50xWv-129" style="edgeStyle=orthogonalEdgeStyle;curved=1;rounded=0;orthogonalLoop=1;jettySize=auto;html=1;fontSize=6;" edge="1" parent="1" source="5" target="fIHSXyvkr7CKKRP50xWv-127">
          <mxGeometry relative="1" as="geometry" />
        </mxCell>
        <mxCell id="5" value="搜索资源位" style="shape=process;whiteSpace=wrap;align=center;verticalAlign=middle;size=0.0475;fontStyle=1;strokeWidth=3;fillColor=#FFCCCC" parent="1" vertex="1">
          <mxGeometry x="-20" y="50" width="274" height="50" as="geometry" />
        </mxCell>
        <mxCell id="fIHSXyvkr7CKKRP50xWv-108" style="edgeStyle=orthogonalEdgeStyle;curved=1;rounded=0;orthogonalLoop=1;jettySize=auto;html=1;fontSize=6;exitX=0;exitY=0.5;exitDx=0;exitDy=0;" edge="1" parent="1" source="13">
          <mxGeometry relative="1" as="geometry">
            <mxPoint x="370" y="120" as="targetPoint" />
            <Array as="points">
              <mxPoint x="470" y="170" />
              <mxPoint x="370" y="170" />
            </Array>
          </mxGeometry>
        </mxCell>
        <mxCell id="13" value="Deep-OCPX" style="whiteSpace=wrap;align=center;verticalAlign=middle;fontStyle=1;strokeWidth=3;fillColor=#FFFFCC" parent="1" vertex="1">
          <mxGeometry x="470" y="110" width="90" height="60" as="geometry" />
        </mxCell>
        <mxCell id="fIHSXyvkr7CKKRP50xWv-105" style="edgeStyle=orthogonalEdgeStyle;curved=1;rounded=0;orthogonalLoop=1;jettySize=auto;html=1;entryX=1.008;entryY=0.48;entryDx=0;entryDy=0;entryPerimeter=0;" edge="1" parent="1" source="15" target="fIHSXyvkr7CKKRP50xWv-107">
          <mxGeometry relative="1" as="geometry">
            <mxPoint x="370" y="120" as="targetPoint" />
          </mxGeometry>
        </mxCell>
        <mxCell id="15" value="OCPX" style="whiteSpace=wrap;align=center;verticalAlign=middle;fontStyle=1;strokeWidth=3;fillColor=#FFFFCC" parent="1" vertex="1">
          <mxGeometry x="469.9999999999999" y="20" width="90" height="60" as="geometry" />
        </mxCell>
        <mxCell id="fIHSXyvkr7CKKRP50xWv-122" style="edgeStyle=orthogonalEdgeStyle;curved=1;rounded=0;orthogonalLoop=1;jettySize=auto;html=1;fontSize=6;" edge="1" parent="1" source="fIHSXyvkr7CKKRP50xWv-96" target="fIHSXyvkr7CKKRP50xWv-119">
          <mxGeometry relative="1" as="geometry" />
        </mxCell>
        <mxCell id="fIHSXyvkr7CKKRP50xWv-131" style="edgeStyle=orthogonalEdgeStyle;curved=1;rounded=0;orthogonalLoop=1;jettySize=auto;html=1;entryX=0.992;entryY=0.617;entryDx=0;entryDy=0;entryPerimeter=0;fontSize=6;" edge="1" parent="1" source="fIHSXyvkr7CKKRP50xWv-96" target="fIHSXyvkr7CKKRP50xWv-127">
          <mxGeometry relative="1" as="geometry" />
        </mxCell>
        <mxCell id="fIHSXyvkr7CKKRP50xWv-96" value="实验号" style="shape=process;whiteSpace=wrap;align=center;verticalAlign=middle;size=0.0475;fontStyle=1;strokeWidth=3;fillColor=#FFCCCC" vertex="1" parent="1">
          <mxGeometry x="-20" y="240" width="140" height="50" as="geometry" />
        </mxCell>
        <mxCell id="fIHSXyvkr7CKKRP50xWv-99" value="多路召回" style="shape=process;whiteSpace=wrap;align=center;verticalAlign=middle;size=0.0475;fontStyle=1;strokeWidth=3;fillColor=#FFCCCC" vertex="1" parent="1">
          <mxGeometry x="-20" y="340" width="140" height="50" as="geometry" />
        </mxCell>
        <mxCell id="fIHSXyvkr7CKKRP50xWv-103" style="edgeStyle=orthogonalEdgeStyle;rounded=0;orthogonalLoop=1;jettySize=auto;html=1;curved=1;entryX=-0.048;entryY=0.46;entryDx=0;entryDy=0;entryPerimeter=0;" edge="1" parent="1" source="fIHSXyvkr7CKKRP50xWv-102" target="fIHSXyvkr7CKKRP50xWv-107">
          <mxGeometry relative="1" as="geometry">
            <mxPoint x="260" y="140" as="targetPoint" />
          </mxGeometry>
        </mxCell>
        <mxCell id="fIHSXyvkr7CKKRP50xWv-115" style="edgeStyle=orthogonalEdgeStyle;curved=1;rounded=0;orthogonalLoop=1;jettySize=auto;html=1;entryX=0.024;entryY=0.52;entryDx=0;entryDy=0;entryPerimeter=0;fontSize=6;" edge="1" parent="1" source="fIHSXyvkr7CKKRP50xWv-102" target="fIHSXyvkr7CKKRP50xWv-113">
          <mxGeometry relative="1" as="geometry">
            <Array as="points">
              <mxPoint x="130" y="170" />
              <mxPoint x="130" y="236" />
            </Array>
          </mxGeometry>
        </mxCell>
        <mxCell id="fIHSXyvkr7CKKRP50xWv-130" style="edgeStyle=orthogonalEdgeStyle;curved=1;rounded=0;orthogonalLoop=1;jettySize=auto;html=1;fontSize=6;" edge="1" parent="1" source="fIHSXyvkr7CKKRP50xWv-102" target="fIHSXyvkr7CKKRP50xWv-127">
          <mxGeometry relative="1" as="geometry" />
        </mxCell>
        <mxCell id="fIHSXyvkr7CKKRP50xWv-102" value="流量标签" style="shape=process;whiteSpace=wrap;align=center;verticalAlign=middle;size=0.0475;fontStyle=1;strokeWidth=3;fillColor=#FFCCCC" vertex="1" parent="1">
          <mxGeometry x="-20" y="145" width="140" height="50" as="geometry" />
        </mxCell>
        <mxCell id="fIHSXyvkr7CKKRP50xWv-120" style="edgeStyle=orthogonalEdgeStyle;curved=1;rounded=0;orthogonalLoop=1;jettySize=auto;html=1;entryX=0.25;entryY=1;entryDx=0;entryDy=0;fontSize=6;" edge="1" parent="1" source="fIHSXyvkr7CKKRP50xWv-107" target="fIHSXyvkr7CKKRP50xWv-111">
          <mxGeometry relative="1" as="geometry" />
        </mxCell>
        <mxCell id="fIHSXyvkr7CKKRP50xWv-107" value="&lt;font style=&quot;font-size: 6px&quot;&gt;&lt;span style=&quot;color: rgb(0 , 0 , 0) ; font-family: &amp;#34;helvetica&amp;#34; ; font-style: normal ; font-weight: 400 ; letter-spacing: normal ; text-align: center ; text-indent: 0px ; text-transform: none ; word-spacing: 0px ; background-color: rgb(248 , 249 , 250) ; display: inline ; float: none ; font-size: 6px&quot;&gt;deep/ocpx支持与否&lt;/span&gt;&lt;br style=&quot;font-size: 6px&quot;&gt;&lt;/font&gt;" style="html=1;whiteSpace=wrap;aspect=fixed;shape=isoRectangle;fontSize=6;" vertex="1" parent="1">
          <mxGeometry x="280" y="95" width="83.34" height="50" as="geometry" />
        </mxCell>
        <mxCell id="fIHSXyvkr7CKKRP50xWv-116" style="edgeStyle=orthogonalEdgeStyle;curved=1;rounded=0;orthogonalLoop=1;jettySize=auto;html=1;entryX=0.996;entryY=0.52;entryDx=0;entryDy=0;entryPerimeter=0;fontSize=6;" edge="1" parent="1" source="fIHSXyvkr7CKKRP50xWv-109" target="fIHSXyvkr7CKKRP50xWv-113">
          <mxGeometry relative="1" as="geometry" />
        </mxCell>
        <mxCell id="fIHSXyvkr7CKKRP50xWv-109" value="改词&#xa;Change-keyword" style="whiteSpace=wrap;align=center;verticalAlign=middle;fontStyle=1;strokeWidth=3;fillColor=#FFFFCC" vertex="1" parent="1">
          <mxGeometry x="470" y="270" width="130" height="60" as="geometry" />
        </mxCell>
        <mxCell id="fIHSXyvkr7CKKRP50xWv-111" value="&lt;h1&gt;动态配置列表&lt;/h1&gt;&lt;div&gt;&lt;ul&gt;&lt;li&gt;&lt;span style=&quot;font-family: &amp;#34;pingfang sc&amp;#34; , &amp;#34;helvetica&amp;#34; , &amp;#34;tahoma&amp;#34; , &amp;#34;arial&amp;#34; , &amp;#34;hiragino sans gb&amp;#34; , &amp;#34;microsoft yahei&amp;#34; , &amp;#34;simsun&amp;#34; , &amp;#34;heiti&amp;#34; , sans-serif ; font-size: 12px ; background-color: rgb(255 , 255 , 255)&quot;&gt;ocpx-filter-config&lt;/span&gt;&lt;br&gt;&lt;/li&gt;&lt;li&gt;&lt;span style=&quot;font-family: &amp;#34;pingfang sc&amp;#34; , &amp;#34;helvetica&amp;#34; , &amp;#34;tahoma&amp;#34; , &amp;#34;arial&amp;#34; , &amp;#34;hiragino sans gb&amp;#34; , &amp;#34;microsoft yahei&amp;#34; , &amp;#34;simsun&amp;#34; , &amp;#34;heiti&amp;#34; , sans-serif ; font-size: 12px ; background-color: rgb(255 , 255 , 255)&quot;&gt;deep-ocpx-filter-config&lt;br&gt;&lt;/span&gt;&lt;/li&gt;&lt;/ul&gt;&lt;/div&gt;" style="text;html=1;strokeColor=none;fillColor=none;spacing=5;spacingTop=-20;whiteSpace=wrap;overflow=hidden;rounded=0;fontSize=6;" vertex="1" parent="1">
          <mxGeometry x="320" y="-50" width="170" height="60" as="geometry" />
        </mxCell>
        <mxCell id="fIHSXyvkr7CKKRP50xWv-121" style="edgeStyle=orthogonalEdgeStyle;curved=1;rounded=0;orthogonalLoop=1;jettySize=auto;html=1;fontSize=6;exitX=0.516;exitY=0.02;exitDx=0;exitDy=0;exitPerimeter=0;" edge="1" parent="1" source="fIHSXyvkr7CKKRP50xWv-113" target="fIHSXyvkr7CKKRP50xWv-117">
          <mxGeometry relative="1" as="geometry" />
        </mxCell>
        <mxCell id="fIHSXyvkr7CKKRP50xWv-113" value="&lt;font style=&quot;font-size: 6px&quot;&gt;&lt;span style=&quot;color: rgb(0 , 0 , 0) ; font-family: &amp;#34;helvetica&amp;#34; ; font-style: normal ; font-weight: 400 ; letter-spacing: normal ; text-align: center ; text-indent: 0px ; text-transform: none ; word-spacing: 0px ; background-color: rgb(248 , 249 , 250) ; display: inline ; float: none ; font-size: 6px&quot;&gt;支持改词&lt;/span&gt;&lt;br style=&quot;font-size: 6px&quot;&gt;&lt;/font&gt;" style="html=1;whiteSpace=wrap;aspect=fixed;shape=isoRectangle;fontSize=6;" vertex="1" parent="1">
          <mxGeometry x="280" y="210" width="83.34" height="50" as="geometry" />
        </mxCell>
        <mxCell id="fIHSXyvkr7CKKRP50xWv-117" value="&lt;h1&gt;动态配置列表&lt;/h1&gt;&lt;div&gt;&lt;ul&gt;&lt;li&gt;&lt;span style=&quot;font-family: &amp;#34;pingfang sc&amp;#34; , &amp;#34;helvetica&amp;#34; , &amp;#34;tahoma&amp;#34; , &amp;#34;arial&amp;#34; , &amp;#34;hiragino sans gb&amp;#34; , &amp;#34;microsoft yahei&amp;#34; , &amp;#34;simsun&amp;#34; , &amp;#34;heiti&amp;#34; , sans-serif ; font-size: 12px ; background-color: rgb(255 , 255 , 255)&quot;&gt;force-change-keyword-source-flow-tags-v2&lt;/span&gt;&lt;br&gt;&lt;/li&gt;&lt;li&gt;&lt;span style=&quot;font-family: &amp;#34;pingfang sc&amp;#34; , &amp;#34;helvetica&amp;#34; , &amp;#34;tahoma&amp;#34; , &amp;#34;arial&amp;#34; , &amp;#34;hiragino sans gb&amp;#34; , &amp;#34;microsoft yahei&amp;#34; , &amp;#34;simsun&amp;#34; , &amp;#34;heiti&amp;#34; , sans-serif ; font-size: 12px ; background-color: rgb(255 , 255 , 255)&quot;&gt;force-change-keyword-source-support-case&lt;br&gt;&lt;/span&gt;&lt;/li&gt;&lt;li&gt;&lt;span style=&quot;font-family: &amp;#34;pingfang sc&amp;#34; , &amp;#34;helvetica&amp;#34; , &amp;#34;tahoma&amp;#34; , &amp;#34;arial&amp;#34; , &amp;#34;hiragino sans gb&amp;#34; , &amp;#34;microsoft yahei&amp;#34; , &amp;#34;simsun&amp;#34; , &amp;#34;heiti&amp;#34; , sans-serif ; font-size: 12px ; background-color: rgb(255 , 255 , 255)&quot;&gt;force-change-keyword-filter-media-pos-flows&lt;/span&gt;&lt;/li&gt;&lt;/ul&gt;&lt;/div&gt;" style="text;html=1;strokeColor=none;fillColor=none;spacing=5;spacingTop=-20;whiteSpace=wrap;overflow=hidden;rounded=0;fontSize=6;" vertex="1" parent="1">
          <mxGeometry x="570" y="180" width="310" height="75" as="geometry" />
        </mxCell>
        <mxCell id="fIHSXyvkr7CKKRP50xWv-125" style="edgeStyle=orthogonalEdgeStyle;curved=1;rounded=0;orthogonalLoop=1;jettySize=auto;html=1;entryX=0.5;entryY=1;entryDx=0;entryDy=0;fontSize=6;" edge="1" parent="1" source="fIHSXyvkr7CKKRP50xWv-119" target="fIHSXyvkr7CKKRP50xWv-124">
          <mxGeometry relative="1" as="geometry" />
        </mxCell>
        <mxCell id="fIHSXyvkr7CKKRP50xWv-119" value="&lt;font face=&quot;helvetica&quot;&gt;支持&lt;br&gt;多/打底cvr&lt;br&gt;通用/具体操作&lt;br&gt;&lt;/font&gt;" style="html=1;whiteSpace=wrap;aspect=fixed;shape=isoRectangle;fontSize=6;" vertex="1" parent="1">
          <mxGeometry x="-170" y="-20" width="116.68" height="70" as="geometry" />
        </mxCell>
        <mxCell id="fIHSXyvkr7CKKRP50xWv-124" value="&lt;h1&gt;动态配置列表&lt;/h1&gt;&lt;div&gt;&lt;ul&gt;&lt;li&gt;&lt;font face=&quot;pingfang sc, helvetica, tahoma, arial, hiragino sans gb, microsoft yahei, simsun, heiti, sans-serif&quot;&gt;search_ocpx.json&lt;/font&gt;&lt;/li&gt;&lt;/ul&gt;&lt;/div&gt;" style="text;html=1;strokeColor=none;fillColor=none;spacing=5;spacingTop=-20;whiteSpace=wrap;overflow=hidden;rounded=0;fontSize=6;" vertex="1" parent="1">
          <mxGeometry x="-320" y="-70" width="170" height="40" as="geometry" />
        </mxCell>
        <mxCell id="fIHSXyvkr7CKKRP50xWv-133" style="edgeStyle=orthogonalEdgeStyle;curved=1;rounded=0;orthogonalLoop=1;jettySize=auto;html=1;entryX=0.5;entryY=0;entryDx=0;entryDy=0;fontSize=6;" edge="1" parent="1" source="fIHSXyvkr7CKKRP50xWv-127" target="fIHSXyvkr7CKKRP50xWv-132">
          <mxGeometry relative="1" as="geometry" />
        </mxCell>
        <mxCell id="fIHSXyvkr7CKKRP50xWv-127" value="试验号选择" style="whiteSpace=wrap;align=center;verticalAlign=middle;fontStyle=1;strokeWidth=3;fillColor=#FFFFCC" vertex="1" parent="1">
          <mxGeometry x="-240" y="350" width="130" height="60" as="geometry" />
        </mxCell>
        <mxCell id="fIHSXyvkr7CKKRP50xWv-132" value="&lt;h1&gt;动态配置列表&lt;/h1&gt;&lt;div&gt;&lt;ul&gt;&lt;li&gt;&lt;font face=&quot;pingfang sc, helvetica, tahoma, arial, hiragino sans gb, microsoft yahei, simsun, heiti, sans-serif&quot;&gt;&lt;span style=&quot;background-color: rgb(255 , 255 , 255)&quot;&gt;gateway.experiment.search&lt;/span&gt;&lt;/font&gt;&lt;/li&gt;&lt;/ul&gt;&lt;/div&gt;" style="text;html=1;strokeColor=none;fillColor=none;spacing=5;spacingTop=-20;whiteSpace=wrap;overflow=hidden;rounded=0;fontSize=6;" vertex="1" parent="1">
          <mxGeometry x="-230" y="520" width="310" height="40" as="geometry" />
        </mxCell>
        <mxCell id="fIHSXyvkr7CKKRP50xWv-137" style="edgeStyle=orthogonalEdgeStyle;curved=1;rounded=0;orthogonalLoop=1;jettySize=auto;html=1;fontSize=6;" edge="1" parent="1" source="fIHSXyvkr7CKKRP50xWv-134" target="fIHSXyvkr7CKKRP50xWv-136">
          <mxGeometry relative="1" as="geometry" />
        </mxCell>
        <mxCell id="fIHSXyvkr7CKKRP50xWv-160" style="edgeStyle=orthogonalEdgeStyle;curved=1;rounded=0;orthogonalLoop=1;jettySize=auto;html=1;fontSize=6;" edge="1" parent="1" source="fIHSXyvkr7CKKRP50xWv-134" target="fIHSXyvkr7CKKRP50xWv-157">
          <mxGeometry relative="1" as="geometry">
            <Array as="points">
              <mxPoint x="160" y="965" />
              <mxPoint x="230" y="965" />
              <mxPoint x="230" y="1204" />
            </Array>
          </mxGeometry>
        </mxCell>
        <mxCell id="fIHSXyvkr7CKKRP50xWv-134" value="联盟资源位" style="shape=process;whiteSpace=wrap;align=center;verticalAlign=middle;size=0.0475;fontStyle=1;strokeWidth=3;fillColor=#FFCCCC" vertex="1" parent="1">
          <mxGeometry x="-20" y="700" width="274" height="50" as="geometry" />
        </mxCell>
        <mxCell id="fIHSXyvkr7CKKRP50xWv-139" style="edgeStyle=orthogonalEdgeStyle;curved=1;rounded=0;orthogonalLoop=1;jettySize=auto;html=1;entryX=0.48;entryY=1.04;entryDx=0;entryDy=0;entryPerimeter=0;fontSize=6;" edge="1" parent="1" source="fIHSXyvkr7CKKRP50xWv-135" target="fIHSXyvkr7CKKRP50xWv-136">
          <mxGeometry relative="1" as="geometry" />
        </mxCell>
        <mxCell id="fIHSXyvkr7CKKRP50xWv-135" value="落地页能力" style="whiteSpace=wrap;align=center;verticalAlign=middle;fontStyle=1;strokeWidth=3;fillColor=#FFFFCC" vertex="1" parent="1">
          <mxGeometry x="490" y="790" width="130" height="60" as="geometry" />
        </mxCell>
        <mxCell id="fIHSXyvkr7CKKRP50xWv-142" style="edgeStyle=orthogonalEdgeStyle;curved=1;rounded=0;orthogonalLoop=1;jettySize=auto;html=1;fontSize=6;" edge="1" parent="1" source="fIHSXyvkr7CKKRP50xWv-136" target="fIHSXyvkr7CKKRP50xWv-140">
          <mxGeometry relative="1" as="geometry" />
        </mxCell>
        <mxCell id="fIHSXyvkr7CKKRP50xWv-136" value="&lt;font style=&quot;font-size: 6px&quot;&gt;&lt;font face=&quot;helvetica&quot;&gt;支持APP披露&lt;/font&gt;&lt;br style=&quot;font-size: 6px&quot;&gt;&lt;/font&gt;" style="html=1;whiteSpace=wrap;aspect=fixed;shape=isoRectangle;fontSize=6;" vertex="1" parent="1">
          <mxGeometry x="371" y="735" width="83.34" height="50" as="geometry" />
        </mxCell>
        <mxCell id="fIHSXyvkr7CKKRP50xWv-140" value="&lt;h1&gt;动态配置列表&lt;/h1&gt;&lt;div&gt;&lt;ul&gt;&lt;li&gt;&lt;span style=&quot;font-family: &amp;#34;pingfang sc&amp;#34; , &amp;#34;helvetica&amp;#34; , &amp;#34;tahoma&amp;#34; , &amp;#34;arial&amp;#34; , &amp;#34;hiragino sans gb&amp;#34; , &amp;#34;microsoft yahei&amp;#34; , &amp;#34;simsun&amp;#34; , &amp;#34;heiti&amp;#34; , sans-serif ; font-size: 12px ; background-color: rgb(255 , 255 , 255)&quot;&gt;append_appInfo_pos_list&lt;br&gt;&lt;/span&gt;&lt;/li&gt;&lt;/ul&gt;&lt;/div&gt;" style="text;html=1;strokeColor=none;fillColor=none;spacing=5;spacingTop=-20;whiteSpace=wrap;overflow=hidden;rounded=0;fontSize=6;" vertex="1" parent="1">
          <mxGeometry x="620" y="700" width="310" height="50" as="geometry" />
        </mxCell>
        <mxCell id="fIHSXyvkr7CKKRP50xWv-149" style="edgeStyle=orthogonalEdgeStyle;curved=1;rounded=0;orthogonalLoop=1;jettySize=auto;html=1;entryX=0.532;entryY=-0.04;entryDx=0;entryDy=0;entryPerimeter=0;fontSize=6;" edge="1" parent="1" source="fIHSXyvkr7CKKRP50xWv-143" target="fIHSXyvkr7CKKRP50xWv-147">
          <mxGeometry relative="1" as="geometry" />
        </mxCell>
        <mxCell id="fIHSXyvkr7CKKRP50xWv-143" value="广告主" style="shape=process;whiteSpace=wrap;align=center;verticalAlign=middle;size=0.0475;fontStyle=1;strokeWidth=3;fillColor=#FFCCCC" vertex="1" parent="1">
          <mxGeometry x="-20" y="795" width="140" height="50" as="geometry" />
        </mxCell>
        <mxCell id="fIHSXyvkr7CKKRP50xWv-150" style="edgeStyle=orthogonalEdgeStyle;curved=1;rounded=0;orthogonalLoop=1;jettySize=auto;html=1;entryX=0.028;entryY=0.56;entryDx=0;entryDy=0;entryPerimeter=0;fontSize=6;" edge="1" parent="1" source="fIHSXyvkr7CKKRP50xWv-144" target="fIHSXyvkr7CKKRP50xWv-147">
          <mxGeometry relative="1" as="geometry" />
        </mxCell>
        <mxCell id="fIHSXyvkr7CKKRP50xWv-144" value="广告" style="shape=process;whiteSpace=wrap;align=center;verticalAlign=middle;size=0.0475;fontStyle=1;strokeWidth=3;fillColor=#FFCCCC" vertex="1" parent="1">
          <mxGeometry x="-20" y="890" width="140" height="50" as="geometry" />
        </mxCell>
        <mxCell id="fIHSXyvkr7CKKRP50xWv-151" style="edgeStyle=orthogonalEdgeStyle;curved=1;rounded=0;orthogonalLoop=1;jettySize=auto;html=1;entryX=0.016;entryY=0.58;entryDx=0;entryDy=0;entryPerimeter=0;fontSize=6;" edge="1" parent="1" source="fIHSXyvkr7CKKRP50xWv-145" target="fIHSXyvkr7CKKRP50xWv-147">
          <mxGeometry relative="1" as="geometry" />
        </mxCell>
        <mxCell id="fIHSXyvkr7CKKRP50xWv-145" value="APP" style="shape=process;whiteSpace=wrap;align=center;verticalAlign=middle;size=0.0475;fontStyle=1;strokeWidth=3;fillColor=#FFCCCC" vertex="1" parent="1">
          <mxGeometry x="-20" y="990" width="140" height="50" as="geometry" />
        </mxCell>
        <mxCell id="fIHSXyvkr7CKKRP50xWv-152" style="edgeStyle=orthogonalEdgeStyle;curved=1;rounded=0;orthogonalLoop=1;jettySize=auto;html=1;entryX=0.988;entryY=0.56;entryDx=0;entryDy=0;entryPerimeter=0;fontSize=6;" edge="1" parent="1" source="fIHSXyvkr7CKKRP50xWv-146" target="fIHSXyvkr7CKKRP50xWv-147">
          <mxGeometry relative="1" as="geometry" />
        </mxCell>
        <mxCell id="fIHSXyvkr7CKKRP50xWv-146" value="下载渠道选择" style="whiteSpace=wrap;align=center;verticalAlign=middle;fontStyle=1;strokeWidth=3;fillColor=#FFFFCC" vertex="1" parent="1">
          <mxGeometry x="490" y="950" width="130" height="60" as="geometry" />
        </mxCell>
        <mxCell id="fIHSXyvkr7CKKRP50xWv-155" style="edgeStyle=orthogonalEdgeStyle;curved=1;rounded=0;orthogonalLoop=1;jettySize=auto;html=1;entryX=0;entryY=0;entryDx=0;entryDy=0;fontSize=6;exitX=0.508;exitY=0.98;exitDx=0;exitDy=0;exitPerimeter=0;" edge="1" parent="1" source="fIHSXyvkr7CKKRP50xWv-147" target="fIHSXyvkr7CKKRP50xWv-154">
          <mxGeometry relative="1" as="geometry">
            <Array as="points">
              <mxPoint x="400" y="949" />
              <mxPoint x="400" y="1080" />
            </Array>
          </mxGeometry>
        </mxCell>
        <mxCell id="fIHSXyvkr7CKKRP50xWv-147" value="&lt;font style=&quot;font-size: 6px&quot;&gt;&lt;font face=&quot;helvetica&quot;&gt;广告主/广告&lt;br&gt;&lt;/font&gt;/APP 包含&lt;br style=&quot;font-size: 6px&quot;&gt;&lt;/font&gt;" style="html=1;whiteSpace=wrap;aspect=fixed;shape=isoRectangle;fontSize=6;" vertex="1" parent="1">
          <mxGeometry x="236.66" y="900" width="83.34" height="50" as="geometry" />
        </mxCell>
        <mxCell id="fIHSXyvkr7CKKRP50xWv-153" style="edgeStyle=orthogonalEdgeStyle;curved=1;rounded=0;orthogonalLoop=1;jettySize=auto;html=1;entryX=-0.02;entryY=0.52;entryDx=0;entryDy=0;entryPerimeter=0;fontSize=6;" edge="1" parent="1" source="fIHSXyvkr7CKKRP50xWv-148" target="fIHSXyvkr7CKKRP50xWv-147">
          <mxGeometry relative="1" as="geometry" />
        </mxCell>
        <mxCell id="fIHSXyvkr7CKKRP50xWv-148" value="下载渠道" style="shape=process;whiteSpace=wrap;align=center;verticalAlign=middle;size=0.0475;fontStyle=1;strokeWidth=3;fillColor=#FFCCCC" vertex="1" parent="1">
          <mxGeometry x="-20" y="1090" width="140" height="50" as="geometry" />
        </mxCell>
        <mxCell id="fIHSXyvkr7CKKRP50xWv-154" value="&lt;h1&gt;动态配置列表&lt;/h1&gt;&lt;div&gt;&lt;ul&gt;&lt;li&gt;&lt;span style=&quot;font-family: &amp;#34;pingfang sc&amp;#34; , &amp;#34;helvetica&amp;#34; , &amp;#34;tahoma&amp;#34; , &amp;#34;arial&amp;#34; , &amp;#34;hiragino sans gb&amp;#34; , &amp;#34;microsoft yahei&amp;#34; , &amp;#34;simsun&amp;#34; , &amp;#34;heiti&amp;#34; , sans-serif ; font-size: 12px ; background-color: rgb(255 , 255 , 255)&quot;&gt;union_advert_ad_dl_channel_config&lt;br&gt;&lt;/span&gt;&lt;/li&gt;&lt;/ul&gt;&lt;/div&gt;" style="text;html=1;strokeColor=none;fillColor=none;spacing=5;spacingTop=-20;whiteSpace=wrap;overflow=hidden;rounded=0;fontSize=6;" vertex="1" parent="1">
          <mxGeometry x="500" y="1080" width="310" height="50" as="geometry" />
        </mxCell>
        <mxCell id="fIHSXyvkr7CKKRP50xWv-163" style="edgeStyle=orthogonalEdgeStyle;curved=1;rounded=0;orthogonalLoop=1;jettySize=auto;html=1;entryX=0.492;entryY=1;entryDx=0;entryDy=0;entryPerimeter=0;fontSize=6;" edge="1" parent="1" source="fIHSXyvkr7CKKRP50xWv-156" target="fIHSXyvkr7CKKRP50xWv-157">
          <mxGeometry relative="1" as="geometry" />
        </mxCell>
        <mxCell id="fIHSXyvkr7CKKRP50xWv-156" value="下载能力-自动下载/打开" style="whiteSpace=wrap;align=center;verticalAlign=middle;fontStyle=1;strokeWidth=3;fillColor=#FFFFCC" vertex="1" parent="1">
          <mxGeometry x="360" y="1285" width="130" height="60" as="geometry" />
        </mxCell>
        <mxCell id="fIHSXyvkr7CKKRP50xWv-157" value="&lt;font style=&quot;font-size: 6px&quot;&gt;&lt;font face=&quot;helvetica&quot;&gt;能力开启&lt;/font&gt;&lt;br style=&quot;font-size: 6px&quot;&gt;&lt;/font&gt;" style="html=1;whiteSpace=wrap;aspect=fixed;shape=isoRectangle;fontSize=6;" vertex="1" parent="1">
          <mxGeometry x="250" y="1179" width="83.34" height="50" as="geometry" />
        </mxCell>
        <mxCell id="fIHSXyvkr7CKKRP50xWv-161" style="edgeStyle=orthogonalEdgeStyle;curved=1;rounded=0;orthogonalLoop=1;jettySize=auto;html=1;entryX=0.072;entryY=0.5;entryDx=0;entryDy=0;entryPerimeter=0;fontSize=6;" edge="1" parent="1" source="fIHSXyvkr7CKKRP50xWv-158" target="fIHSXyvkr7CKKRP50xWv-157">
          <mxGeometry relative="1" as="geometry" />
        </mxCell>
        <mxCell id="fIHSXyvkr7CKKRP50xWv-158" value="地域" style="shape=process;whiteSpace=wrap;align=center;verticalAlign=middle;size=0.0475;fontStyle=1;strokeWidth=3;fillColor=#FFCCCC" vertex="1" parent="1">
          <mxGeometry x="-20" y="1190" width="140" height="50" as="geometry" />
        </mxCell>
        <mxCell id="fIHSXyvkr7CKKRP50xWv-162" style="edgeStyle=orthogonalEdgeStyle;curved=1;rounded=0;orthogonalLoop=1;jettySize=auto;html=1;entryX=0.036;entryY=0.56;entryDx=0;entryDy=0;entryPerimeter=0;fontSize=6;" edge="1" parent="1" source="fIHSXyvkr7CKKRP50xWv-159" target="fIHSXyvkr7CKKRP50xWv-157">
          <mxGeometry relative="1" as="geometry" />
        </mxCell>
        <mxCell id="fIHSXyvkr7CKKRP50xWv-159" value="包名" style="shape=process;whiteSpace=wrap;align=center;verticalAlign=middle;size=0.0475;fontStyle=1;strokeWidth=3;fillColor=#FFCCCC" vertex="1" parent="1">
          <mxGeometry x="-20" y="1290" width="140" height="50" as="geometry" />
        </mxCell>
        <mxCell id="fIHSXyvkr7CKKRP50xWv-164" value="&lt;h1&gt;动态配置列表&lt;/h1&gt;&lt;div&gt;&lt;ul&gt;&lt;li&gt;&lt;span style=&quot;font-family: &amp;#34;pingfang sc&amp;#34; , &amp;#34;helvetica&amp;#34; , &amp;#34;tahoma&amp;#34; , &amp;#34;arial&amp;#34; , &amp;#34;hiragino sans gb&amp;#34; , &amp;#34;microsoft yahei&amp;#34; , &amp;#34;simsun&amp;#34; , &amp;#34;heiti&amp;#34; , sans-serif ; font-size: 12px ; background-color: rgb(255 , 255 , 255)&quot;&gt;app_install_cmpl_auto_open_conf_list&lt;br&gt;&lt;/span&gt;&lt;/li&gt;&lt;/ul&gt;&lt;/div&gt;" style="text;html=1;strokeColor=none;fillColor=none;spacing=5;spacingTop=-20;whiteSpace=wrap;overflow=hidden;rounded=0;fontSize=6;" vertex="1" parent="1">
          <mxGeometry x="360" y="1220" width="310" height="50" as="geometry" />
        </mxCell>
        <mxCell id="fIHSXyvkr7CKKRP50xWv-200" style="edgeStyle=orthogonalEdgeStyle;curved=1;rounded=0;orthogonalLoop=1;jettySize=auto;html=1;entryX=0.528;entryY=-0.02;entryDx=0;entryDy=0;entryPerimeter=0;fontSize=6;" edge="1" parent="1" source="fIHSXyvkr7CKKRP50xWv-167" target="fIHSXyvkr7CKKRP50xWv-181">
          <mxGeometry relative="1" as="geometry" />
        </mxCell>
        <mxCell id="fIHSXyvkr7CKKRP50xWv-167" value="信息流资源位" style="shape=process;whiteSpace=wrap;align=center;verticalAlign=middle;size=0.0475;fontStyle=1;strokeWidth=3;fillColor=#FFCCCC" vertex="1" parent="1">
          <mxGeometry x="-27" y="1455" width="274" height="50" as="geometry" />
        </mxCell>
        <mxCell id="fIHSXyvkr7CKKRP50xWv-172" style="edgeStyle=orthogonalEdgeStyle;curved=1;rounded=0;orthogonalLoop=1;jettySize=auto;html=1;entryX=0.532;entryY=-0.04;entryDx=0;entryDy=0;entryPerimeter=0;fontSize=6;" edge="1" parent="1" source="fIHSXyvkr7CKKRP50xWv-173" target="fIHSXyvkr7CKKRP50xWv-181">
          <mxGeometry relative="1" as="geometry" />
        </mxCell>
        <mxCell id="fIHSXyvkr7CKKRP50xWv-173" value="资源页" style="shape=process;whiteSpace=wrap;align=center;verticalAlign=middle;size=0.0475;fontStyle=1;strokeWidth=3;fillColor=#FFCCCC" vertex="1" parent="1">
          <mxGeometry x="-27" y="1550" width="140" height="50" as="geometry" />
        </mxCell>
        <mxCell id="fIHSXyvkr7CKKRP50xWv-174" style="edgeStyle=orthogonalEdgeStyle;curved=1;rounded=0;orthogonalLoop=1;jettySize=auto;html=1;entryX=0.028;entryY=0.56;entryDx=0;entryDy=0;entryPerimeter=0;fontSize=6;" edge="1" parent="1" source="fIHSXyvkr7CKKRP50xWv-175" target="fIHSXyvkr7CKKRP50xWv-181">
          <mxGeometry relative="1" as="geometry" />
        </mxCell>
        <mxCell id="fIHSXyvkr7CKKRP50xWv-175" value="浏览器频道" style="shape=process;whiteSpace=wrap;align=center;verticalAlign=middle;size=0.0475;fontStyle=1;strokeWidth=3;fillColor=#FFCCCC" vertex="1" parent="1">
          <mxGeometry x="-27" y="1645" width="140" height="50" as="geometry" />
        </mxCell>
        <mxCell id="fIHSXyvkr7CKKRP50xWv-178" style="edgeStyle=orthogonalEdgeStyle;curved=1;rounded=0;orthogonalLoop=1;jettySize=auto;html=1;entryX=0.988;entryY=0.56;entryDx=0;entryDy=0;entryPerimeter=0;fontSize=6;" edge="1" parent="1" source="fIHSXyvkr7CKKRP50xWv-179" target="fIHSXyvkr7CKKRP50xWv-181">
          <mxGeometry relative="1" as="geometry" />
        </mxCell>
        <mxCell id="fIHSXyvkr7CKKRP50xWv-179" value="广告位权限粒度能力" style="whiteSpace=wrap;align=center;verticalAlign=middle;fontStyle=1;strokeWidth=3;fillColor=#FFFFCC" vertex="1" parent="1">
          <mxGeometry x="436" y="1450" width="130" height="60" as="geometry" />
        </mxCell>
        <mxCell id="fIHSXyvkr7CKKRP50xWv-180" style="edgeStyle=orthogonalEdgeStyle;curved=1;rounded=0;orthogonalLoop=1;jettySize=auto;html=1;entryX=0;entryY=0.5;entryDx=0;entryDy=0;fontSize=6;exitX=0.508;exitY=0.98;exitDx=0;exitDy=0;exitPerimeter=0;" edge="1" parent="1" source="fIHSXyvkr7CKKRP50xWv-181" target="fIHSXyvkr7CKKRP50xWv-184">
          <mxGeometry relative="1" as="geometry">
            <Array as="points">
              <mxPoint x="273" y="1704" />
              <mxPoint x="436" y="1704" />
            </Array>
          </mxGeometry>
        </mxCell>
        <mxCell id="fIHSXyvkr7CKKRP50xWv-181" value="&lt;font style=&quot;font-size: 6px&quot;&gt;&lt;font face=&quot;helvetica&quot;&gt;广告主/广告&lt;br&gt;&lt;/font&gt;/APP 包含&lt;br style=&quot;font-size: 6px&quot;&gt;&lt;/font&gt;" style="html=1;whiteSpace=wrap;aspect=fixed;shape=isoRectangle;fontSize=6;" vertex="1" parent="1">
          <mxGeometry x="231" y="1603" width="83.34" height="50" as="geometry" />
        </mxCell>
        <mxCell id="fIHSXyvkr7CKKRP50xWv-184" value="&lt;h1&gt;动态配置列表&lt;/h1&gt;&lt;div&gt;&lt;ul&gt;&lt;li&gt;&lt;span style=&quot;font-family: &amp;#34;pingfang sc&amp;#34; , &amp;#34;helvetica&amp;#34; , &amp;#34;tahoma&amp;#34; , &amp;#34;arial&amp;#34; , &amp;#34;hiragino sans gb&amp;#34; , &amp;#34;microsoft yahei&amp;#34; , &amp;#34;simsun&amp;#34; , &amp;#34;heiti&amp;#34; , sans-serif ; font-size: 12px ; background-color: rgb(255 , 255 , 255)&quot;&gt;show_feeds_pos_config_type_mapping&lt;br&gt;&lt;/span&gt;&lt;/li&gt;&lt;/ul&gt;&lt;/div&gt;" style="text;html=1;strokeColor=none;fillColor=none;spacing=5;spacingTop=-20;whiteSpace=wrap;overflow=hidden;rounded=0;fontSize=6;" vertex="1" parent="1">
          <mxGeometry x="436" y="1645" width="310" height="50" as="geometry" />
        </mxCell>
        <mxCell id="fIHSXyvkr7CKKRP50xWv-201" value="" style="rounded=1;whiteSpace=wrap;html=1;fontSize=6;dashed=1;" vertex="1" parent="1">
          <mxGeometry x="-100" y="1846" width="748" height="452" as="geometry" />
        </mxCell>
        <mxCell id="fIHSXyvkr7CKKRP50xWv-202" value="&lt;b&gt;&lt;font style=&quot;font-size: 14px&quot;&gt;元数据中心&lt;/font&gt;&lt;/b&gt;" style="text;html=1;strokeColor=none;fillColor=none;align=center;verticalAlign=middle;whiteSpace=wrap;rounded=0;dashed=1;fontSize=6;" vertex="1" parent="1">
          <mxGeometry x="207" y="1850" width="134" height="30" as="geometry" />
        </mxCell>
        <mxCell id="fIHSXyvkr7CKKRP50xWv-204" value="媒体实验号" style="shape=process;whiteSpace=wrap;align=center;verticalAlign=middle;size=0.0475;fontStyle=1;strokeWidth=3;fillColor=#FFCCCC" vertex="1" parent="1">
          <mxGeometry x="-75" y="1887" width="140" height="50" as="geometry" />
        </mxCell>
        <mxCell id="fIHSXyvkr7CKKRP50xWv-205" value="流量标签" style="shape=process;whiteSpace=wrap;align=center;verticalAlign=middle;size=0.0475;fontStyle=1;strokeWidth=3;fillColor=#FFCCCC" vertex="1" parent="1">
          <mxGeometry x="-77" y="1970" width="140" height="50" as="geometry" />
        </mxCell>
        <mxCell id="fIHSXyvkr7CKKRP50xWv-206" value="浏览器频道" style="shape=process;whiteSpace=wrap;align=center;verticalAlign=middle;size=0.0475;fontStyle=1;strokeWidth=3;fillColor=#FFCCCC" vertex="1" parent="1">
          <mxGeometry x="-77" y="2053" width="140" height="50" as="geometry" />
        </mxCell>
        <mxCell id="fIHSXyvkr7CKKRP50xWv-207" value="下载渠道" style="shape=process;whiteSpace=wrap;align=center;verticalAlign=middle;size=0.0475;fontStyle=1;strokeWidth=3;fillColor=#FFCCCC" vertex="1" parent="1">
          <mxGeometry x="110" y="1887" width="140" height="50" as="geometry" />
        </mxCell>
        <mxCell id="fIHSXyvkr7CKKRP50xWv-208" value="地域" style="shape=process;whiteSpace=wrap;align=center;verticalAlign=middle;size=0.0475;fontStyle=1;strokeWidth=3;fillColor=#FFCCCC" vertex="1" parent="1">
          <mxGeometry x="110" y="1970" width="140" height="50" as="geometry" />
        </mxCell>
        <mxCell id="fIHSXyvkr7CKKRP50xWv-209" value="机型" style="shape=process;whiteSpace=wrap;align=center;verticalAlign=middle;size=0.0475;fontStyle=1;strokeWidth=3;fillColor=#FFCCCC" vertex="1" parent="1">
          <mxGeometry x="110" y="2053" width="140" height="50" as="geometry" />
        </mxCell>
        <mxCell id="fIHSXyvkr7CKKRP50xWv-210" value="性别" style="shape=process;whiteSpace=wrap;align=center;verticalAlign=middle;size=0.0475;fontStyle=1;strokeWidth=3;fillColor=#FFCCCC" vertex="1" parent="1">
          <mxGeometry x="296" y="1887" width="140" height="50" as="geometry" />
        </mxCell>
        <mxCell id="fIHSXyvkr7CKKRP50xWv-211" value="年龄" style="shape=process;whiteSpace=wrap;align=center;verticalAlign=middle;size=0.0475;fontStyle=1;strokeWidth=3;fillColor=#FFCCCC" vertex="1" parent="1">
          <mxGeometry x="296" y="1970" width="140" height="50" as="geometry" />
        </mxCell>
        <mxCell id="fIHSXyvkr7CKKRP50xWv-212" value="锁屏分类" style="shape=process;whiteSpace=wrap;align=center;verticalAlign=middle;size=0.0475;fontStyle=1;strokeWidth=3;fillColor=#FFCCCC" vertex="1" parent="1">
          <mxGeometry x="296" y="2053" width="140" height="50" as="geometry" />
        </mxCell>
        <mxCell id="fIHSXyvkr7CKKRP50xWv-213" value="算法实验号" style="shape=process;whiteSpace=wrap;align=center;verticalAlign=middle;size=0.0475;fontStyle=1;strokeWidth=3;fillColor=#FFCCCC" vertex="1" parent="1">
          <mxGeometry x="482" y="1887" width="140" height="50" as="geometry" />
        </mxCell>
        <mxCell id="fIHSXyvkr7CKKRP50xWv-214" value="内容渠道" style="shape=process;whiteSpace=wrap;align=center;verticalAlign=middle;size=0.0475;fontStyle=1;strokeWidth=3;fillColor=#FFCCCC" vertex="1" parent="1">
          <mxGeometry x="482" y="1970" width="140" height="50" as="geometry" />
        </mxCell>
        <mxCell id="fIHSXyvkr7CKKRP50xWv-215" value="落地页能力" style="shape=process;whiteSpace=wrap;align=center;verticalAlign=middle;size=0.0475;fontStyle=1;strokeWidth=3;fillColor=#FFCCCC" vertex="1" parent="1">
          <mxGeometry x="482" y="2053" width="140" height="50" as="geometry" />
        </mxCell>
        <mxCell id="fIHSXyvkr7CKKRP50xWv-216" value="下载能力" style="shape=process;whiteSpace=wrap;align=center;verticalAlign=middle;size=0.0475;fontStyle=1;strokeWidth=3;fillColor=#FFCCCC" vertex="1" parent="1">
          <mxGeometry x="-77" y="2136" width="140" height="50" as="geometry" />
        </mxCell>
        <mxCell id="fIHSXyvkr7CKKRP50xWv-217" value="OCPX元数据" style="shape=process;whiteSpace=wrap;align=center;verticalAlign=middle;size=0.0475;fontStyle=1;strokeWidth=3;fillColor=#FFCCCC" vertex="1" parent="1">
          <mxGeometry x="110" y="2136" width="140" height="50" as="geometry" />
        </mxCell>
        <mxCell id="fIHSXyvkr7CKKRP50xWv-218" value="关键词调整能力" style="shape=process;whiteSpace=wrap;align=center;verticalAlign=middle;size=0.0475;fontStyle=1;strokeWidth=3;fillColor=#FFCCCC" vertex="1" parent="1">
          <mxGeometry x="296" y="2136" width="140" height="50" as="geometry" />
        </mxCell>
        <mxCell id="fIHSXyvkr7CKKRP50xWv-220" value="召回能力" style="shape=process;whiteSpace=wrap;align=center;verticalAlign=middle;size=0.0475;fontStyle=1;strokeWidth=3;fillColor=#FFCCCC" vertex="1" parent="1">
          <mxGeometry x="482" y="2136" width="140" height="50" as="geometry" />
        </mxCell>
        <mxCell id="fIHSXyvkr7CKKRP50xWv-221" value="预取能力" style="shape=process;whiteSpace=wrap;align=center;verticalAlign=middle;size=0.0475;fontStyle=1;strokeWidth=3;fillColor=#FFCCCC" vertex="1" parent="1">
          <mxGeometry x="-77" y="2219" width="140" height="50" as="geometry" />
        </mxCell>
        <mxCell id="fIHSXyvkr7CKKRP50xWv-222" value="实时能力" style="shape=process;whiteSpace=wrap;align=center;verticalAlign=middle;size=0.0475;fontStyle=1;strokeWidth=3;fillColor=#FFCCCC" vertex="1" parent="1">
          <mxGeometry x="113" y="2219" width="140" height="50" as="geometry" />
        </mxCell>
        <mxCell id="fIHSXyvkr7CKKRP50xWv-227" style="edgeStyle=orthogonalEdgeStyle;curved=1;rounded=0;orthogonalLoop=1;jettySize=auto;html=1;entryX=0;entryY=0.5;entryDx=0;entryDy=0;fontSize=14;endArrow=none;endFill=0;shape=link;" edge="1" parent="1" source="fIHSXyvkr7CKKRP50xWv-223" target="fIHSXyvkr7CKKRP50xWv-226">
          <mxGeometry relative="1" as="geometry" />
        </mxCell>
        <mxCell id="fIHSXyvkr7CKKRP50xWv-223" value="用户" style="ellipse;whiteSpace=wrap;html=1;aspect=fixed;fontSize=14;fillColor=#f8cecc;strokeColor=#b85450;" vertex="1" parent="1">
          <mxGeometry x="-2" y="2493" width="141" height="141" as="geometry" />
        </mxCell>
        <mxCell id="fIHSXyvkr7CKKRP50xWv-228" style="edgeStyle=orthogonalEdgeStyle;curved=1;rounded=0;orthogonalLoop=1;jettySize=auto;html=1;entryX=1;entryY=0.5;entryDx=0;entryDy=0;fontSize=14;endArrow=none;endFill=0;shape=link;" edge="1" parent="1" source="fIHSXyvkr7CKKRP50xWv-224" target="fIHSXyvkr7CKKRP50xWv-226">
          <mxGeometry relative="1" as="geometry" />
        </mxCell>
        <mxCell id="fIHSXyvkr7CKKRP50xWv-224" value="广告主" style="ellipse;whiteSpace=wrap;html=1;aspect=fixed;fontSize=14;fillColor=#f8cecc;strokeColor=#b85450;" vertex="1" parent="1">
          <mxGeometry x="484.5" y="2493" width="141" height="141" as="geometry" />
        </mxCell>
        <mxCell id="fIHSXyvkr7CKKRP50xWv-226" value="能力&lt;br&gt;（策略调控点）" style="rounded=1;whiteSpace=wrap;html=1;fontSize=14;fillColor=#d5e8d4;strokeColor=#82b366;" vertex="1" parent="1">
          <mxGeometry x="254" y="2533.5" width="120" height="60" as="geometry" />
        </mxCell>
      </root>
    </mxGraphModel>
  </diagram>
</mxfile>
